<svg id="Capa_1" enable-background="new 0 0 509.985 509.985" height="512" viewBox="0 0 509.985 509.985" width="512" xmlns="http://www.w3.org/2000/svg"><g><g><g><g><path d="m269.153 408.332c33.431-49.915 4.477-93.523-17.541-139.871l3.379-1.903 105.124.151-12.416-30.175h-81.287c-30.1-.268-58.166 13.994-77.744 36.518l-22.895 23.53c-70.34 5.155-127.575-43.352-128.24-112.612v-29.884c0-45.579 36.949-82.528 82.528-82.528h14.984c28.988 0 52.488 23.5 52.488 52.488s-23.5 52.488-52.488 52.488h-14.996c-29.653-.748-29.647-44.223.001-44.968-.001 0 7.028 0 7.028 0 8.081 0 15.035-6.21 15.415-14.283.406-8.619-6.462-15.733-14.991-15.733-31.423-3.172-60.219 20.265-60 52.517 0 29.003 23.512 52.515 52.515 52.515h14.969c45.581 0 82.532-36.951 82.532-82.532-.289-53.249-46.368-87.896-97.708-82.53-62.026-.003-112.309 50.279-112.309 112.306v30.606c1.574 95.148 81.103 151.3 172.13 142.085 19.056 40.456 36.832 66.804.36 112.511v30h60v-30h52.781l.001-30h-24.085zm-23.662-20.313-22.327 38.494c23.475-44.419-2.508-83.581-20.739-123.657l22.86-22.299c13.889 33.919 42.908 70.301 20.206 107.462z" fill="#e8ab4c"/></g><g><g><path d="m134.986 184.006h-14.969c-25.188 0-46.224-17.736-51.325-41.397-.801 3.665-1.217 7.493-1.19 11.457 0 29.003 23.512 52.515 52.515 52.515h14.969c45.581 0 82.532-36.951 82.532-82.532-.021-3.878-.292-7.654-.783-11.326-5.49 40.256-39.986 71.283-81.749 71.283z" fill="#e1763a"/></g><g><path d="m292.772 416.454h-64.994l-11.872 22.574h76.866z" fill="#e1763a"/></g><g><path d="m177.212 303.33c-91.027 9.215-168.137-46.324-169.711-141.472v22.574c1.574 95.148 81.103 151.3 172.13 142.085 8.892 18.876 17.502 34.682 20.456 50.814 2.843-23.796-9.934-46.526-22.875-74.001z" fill="#e1763a"/></g><g><path d="m179.991 446.454h60v22.574h-60z" fill="#e1763a"/></g></g><g><path d="m502.485 236.533v-30.016h-24.291c-6.953-29.562-33.478-51.575-65.161-51.575-31.684 0-58.208 22.014-65.161 51.575h-25.371v30.016h25.198c2.38 10.669 7.313 20.37 14.111 28.449l-31.819 32.404v89.237h60v-30.107h-30v-47.72l25.752-25.751c8.335 3.728 17.567 5.812 27.291 5.812 9.431 0 18.398-1.963 26.535-5.483l25.422 25.423v77.827h30v-89.237l-31.237-31.812c7.058-8.195 12.176-18.111 14.614-29.042z" fill="#e8ab4c"/></g><g><path d="m322.501 206.517h21.702v30.016h-21.702z" fill="#e1763a"/></g><g><g><path d="m329.991 363.986h60v22.639h-60z" fill="#e1763a"/></g><g><path d="m464.991 363.986h30v22.639h-30z" fill="#e1763a"/></g></g><g><g><path d="m387.267 205.337-12.628-8.094c3.217-5.02 7.516-9.458 12.43-12.837l8.497 12.361c-3.282 2.256-6.151 5.219-8.299 8.57z" fill="#fff"/></g><g><path d="m418.456 192.125c-3.902-.789-8.028-.789-11.931 0l-2.976-14.701c5.85-1.184 12.032-1.184 17.882 0z" fill="#fff"/></g></g></g></g><g><path d="m509.985 244.034v-45.017h-26.093c-20.778-68.042-120.957-68.013-141.718 0h-27.173v30.017c-79.965-1.499-97.199-1.231-152.395 60.047-24.53 1.202-49.594-3.2-70.089-17.189l-8.235 12.537c24.605 17.07 55.28 21.078 84.659 19.652l32.1-32.989c17.466-17.448 40.681-27.058 65.372-27.058 17.909.033 58.119-.024 75.536 0 1.649 5.278 3.901 10.375 6.684 15.175h-81.551c-8.524-.205-18.23 2.116-26.592 4.082 27.366 52.361 57.975 102.407 13.659 153.237h31.125v15c-7.945 0-49.004 0-55.974 0 2.163-4.153 3.93-8.309 5.338-12.46 23.852-28.419 33.846-57.002 22.517-87.444l-14.208 4.809c5.286 15.617 6.407 30.699-3.936 49.956-1.46-28.131-14.987-55.631-28.265-81.254l11.961-12.435c4.74 9.836 10.082 19.963 14.444 29.454l13.635-6.252c-7.15-15.259-15.573-30.978-22.525-46.909l-7.454 5.548c-6.655 4.442-22.478 22.143-28.337 27.957 26.711 49.848 50.128 96.686 8.895 144.03h31.126v15h-45v-19.907c36.045-44.848 19.187-78.042-3.102-122.604h-34.802c-74.21 0-134.585-60.375-134.585-134.585v-30.606c-.421-64.379 57.273-111.236 119.985-104.807 98.93 2.602 98.928 147.47-.003 150.062h-14.966c-24.822 0-45.016-20.194-45.016-45.016-.203-28.142 25.275-48.039 52.5-45.015 2.072-.001 4.002.825 5.433 2.326 4.672 4.686.831 12.853-5.858 12.688-44.459-4.999-51.122 56.784-7.028 59.97 0-.001 14.996-.001 14.996-.001 87.971-6.415 75.677-130.076-14.984-119.975-49.642-.002-90.028 40.384-90.028 90.026-2.548 46.26 4.281 89.077 41.457 120.662l9.827-11.332c-23.059-19.996-36.284-48.952-36.284-79.445v-29.885c0-41.37 33.657-75.027 75.028-75.027 74.749-8.704 79.383 86.13 14.985 89.978 0-.001-14.996-.001-14.996-.001-8.262 0-14.984-6.722-14.984-14.984s6.722-14.984 14.984-14.984h7.028c30.156-.784 30.348-43.972.423-45.016-84.179-5.419-91.596 116.153-7.483 120.032 128.929 10.925 143.663-172.783 14.966-180.066-71.014-6.674-135.42 47.285-134.982 119.811-.001-.001-.001 30.605-.001 30.605-.243 94.243 83.709 159.425 174.889 149.585 18.595 37.177 31.324 62.963-2.4 102.385v40.126h75v-30h52.781l.002-45h-18.193c22.8-43.799 1.502-87.731-18.963-127.188 1.325-.087 2.647-.131 3.964-.131h75.159l-19.749 20.112v99.803h75v-45.106h-30v-37.113l20.042-20.041c15.935 5.888 34.19 5.989 50.201.282l19.757 19.759v82.22h45v-30.096h-15v15.096h-15v-73.433l-31.222-31.225c-18.129 9.234-39.179 9.083-57.177-.376l-31.601 31.601v58.326h30v15.106h-45v-78.67l34.448-35.081c-9.984-10.761-15.776-21.889-18.228-36.339h-23.709v-15.017h23.812c11.491-68.393 106.967-68.358 118.441 0h22.731v15.017h-22.629c-2.499 14.754-8.477 26.021-18.788 36.873l33.922 34.547v18.596h15v-24.729l-28.78-29.311c4.553-6.406 8.077-13.507 10.409-20.977h25.865z"/><path d="m487.491 334.028h15v15h-15z"/></g></g></svg>