<svg height="480pt" viewBox="0 -4 480.00012 480" width="480pt" xmlns="http://www.w3.org/2000/svg"><path d="m8 0h464v464h-464zm0 0" fill="#e4f8f9"/><path d="m8 264 32-16 40-72 16-24 40 72 32-24 32-72 40-48 32 40 16 48 24 24 24 8 56 32 32 8 48 40v184h-464zm0 0" fill="#b9b9b9"/><path d="m472 464h-464v-32h32v-32h32v-32h24v-32h376zm0 0" fill="#9bb062"/><path d="m240 432h232v32h-232zm0 0" fill="#a88e74"/><path d="m272 400h200v32h-200zm0 0" fill="#b69b88"/><path d="m304 368h168v32h-168zm0 0" fill="#a88e74"/><path d="m336 336h136v32h-136zm0 0" fill="#b69b88"/><path d="m8 432h112v32h-112zm0 0" fill="#a88e74"/><path d="m40 400h112v32h-112zm0 0" fill="#b69b88"/><path d="m72 368h112v32h-112zm0 0" fill="#a88e74"/><path d="m96 336h112v32h-112zm0 0" fill="#b69b88"/><path d="m416 304h56v32h-56zm0 0" fill="#b69b88"/><path d="m192 304h48v32h-48zm0 0" fill="#b69b88"/><path d="m192 328h48v8h-48zm0 0" fill="#ae9482"/><path d="m304 304h48v32h-48zm0 0" fill="#b69b88"/><path d="m264 304h-96v-32l32-32h32l32 32zm0 0" fill="#8d7761"/><path d="m200 272h32v32h-32zm0 0" fill="#7c6956"/><path d="m264 272h64v32h-64zm0 0" fill="#a88e74"/><path d="m136 272h32v32h-32zm0 0" fill="#a88e74"/><g fill="#a8a8a8"><path d="m296 176-8-8-2.664062-8-5.335938-16v72h16zm0 0"/><path d="m344 204.566406-8-4.566406-8-2.664062v34.664062h16zm0 0"/><path d="m208 120h-1.335938l-6.664062 8-8 18v54h16zm0 0"/><path d="m8 264 32-16 40-72 16-24 40 72-40 80-66 16-22 16zm0 0"/><path d="m424 240-8-2v26h16v-18.289062zm0 0"/></g><path d="m392 72h-9.128906c-3.589844-14.117188-16.304688-24-30.871094-24s-27.277344 9.882812-30.871094 24h-1.128906c-8.835938 0-16 7.164062-16 16s7.164062 16 16 16h72c8.835938 0 16-7.164062 16-16s-7.164062-16-16-16zm0 0" fill="#f9f9f9"/><path d="m361.128906 104h30.871094c8.835938 0 16-7.164062 16-16-.015625-1.351562-.207031-2.695312-.566406-4-4.71875-2.632812-10.03125-4.007812-15.433594-4-14.558594.027344-27.257812 9.898438-30.871094 24zm0 0" fill="#ececec"/><path d="m440 112h-9.128906c-3.589844-14.117188-16.304688-24-30.871094-24s-27.277344 9.882812-30.871094 24h-1.128906c-8.835938 0-16 7.164062-16 16s7.164062 16 16 16h72c8.835938 0 16-7.164062 16-16s-7.164062-16-16-16zm0 0" fill="#f9f9f9"/><path d="m152 56v-8c.03125-9.9375-6.085938-18.859375-15.363281-22.410156-9.277344-3.554688-19.789063-1.003906-26.40625 6.410156h-6.230469c-13.253906 0-24 10.746094-24 24-8.835938 0-16 7.164062-16 16s7.164062 16 16 16h72c8.835938 0 16-7.164062 16-16s-7.164062-16-16-16zm0 0" fill="#ececec"/><path d="m168 72c0-8.835938-7.164062-16-16-16v-8c-.027344-11.625-8.382812-21.558594-19.832031-23.574219-5.371094.863281-10.289063 3.535157-13.9375 7.574219h-6.230469c-13.253906 0-24 10.746094-24 24-8.835938 0-16 7.164062-16 16s7.164062 16 16 16h64c8.835938 0 16-7.164062 16-16zm0 0" fill="#f9f9f9"/><path d="m352 248h16v56h-16zm0 0" fill="#a8a8a8"/><path d="m384 264h16v32h-16zm0 0" fill="#a8a8a8"/><path d="m280 232h16v40h-16zm0 0" fill="#a8a8a8"/><path d="m144 248h16v24h-16zm0 0" fill="#a8a8a8"/><path d="m416 336h-64v-32l32-16 32 16zm0 0" fill="#a88e74"/><path d="m376 312h16v24h-16zm0 0" fill="#8d7761"/><path d="m240 304h24v-20l-24 12zm0 0" fill="#7c6956"/><path d="m264 284v20h40v-8l-32-16zm0 0" fill="#8d7761"/><path d="m192 304h-24v-20l24 12zm0 0" fill="#7c6956"/><path d="m136 292 24-12 8 4v20h-32zm0 0" fill="#8d7761"/><path d="m304 336h-64v-32l32-16 32 16zm0 0" fill="#a88e74"/><path d="m264 312h16v24h-16zm0 0" fill="#8d7761"/><path d="m192 336h-64v-32l32-16 32 16zm0 0" fill="#a88e74"/><path d="m328 336h8v32h-8zm0 0" fill="#8ea25a"/><path d="m296 368h8v32h-8zm0 0" fill="#8ea25a"/><path d="m264 400h8v32h-8zm0 0" fill="#8ea25a"/><path d="m232 432h8v32h-8zm0 0" fill="#8ea25a"/><path d="m128 328h64v8h-64zm0 0" fill="#a28970"/><path d="m152 312h16v24h-16zm0 0" fill="#8d7761"/><path d="m152 328h16v8h-16zm0 0" fill="#816d58"/><path d="m240 328h64v8h-64zm0 0" fill="#a28970"/><path d="m264 328h16v8h-16zm0 0" fill="#816d58"/><path d="m352 328h64v8h-64zm0 0" fill="#a28970"/><path d="m376 328h16v8h-16zm0 0" fill="#816d58"/><path d="m304 328h48v8h-48zm0 0" fill="#ae9482"/><path d="m416 328h56v8h-56zm0 0" fill="#ae9482"/><path d="m72 248h16v-84l-8 12-8 14.398438zm0 0" fill="#878787"/><path d="m72 264h16v16h-16zm0 0" fill="#878787"/><path d="m48 288v-54.398438l-8 14.398438-8 4v36zm0 0" fill="#878787"/><path d="m429.121094 233.855469c-.929688-.769531-2.027344-1.316407-3.199219-1.597657l-30.9375-7.738281-54.984375-31.464843c-.457031-.261719-.9375-.480469-1.441406-.648438l-22.207032-7.398438-21.359374-21.328124-15.398438-46.207032c-.300781-.898437-.757812-1.734375-1.34375-2.472656l-32-40c-1.503906-1.875-3.769531-2.976562-6.167969-3-2.398437.003906-4.671875 1.054688-6.226562 2.878906l-40 48c-.472657.570313-.867188 1.199219-1.167969 1.875l-31.152344 70.09375-23 17.25-35.542968-64c-1.355469-2.441406-3.882813-3.996094-6.667969-4.109375-2.789063-.113281-5.433594 1.234375-6.980469 3.554688l-16.335938 24.554687-38.800781 69.839844-29.78125 14.863281c-2.726562 1.359375-4.441406 4.152344-4.425781 7.199219v200c0 4.417969 3.582031 8 8 8h464c4.417969 0 8-3.582031 8-8v-184c0-2.375-1.054688-4.625-2.878906-6.144531zm-413.121094 35.089843 16-8v27.054688h16v-37.929688l24-43.199218v41.128906h16v-69.601562l7.375-11.070313 31.585938 56.839844-36.417969 72.800781-68.277344 15.199219c-1.488281.324219-2.847656 1.074219-3.921875 2.152343l-2.34375 2.367188zm96 187.054688h-96v-16h96zm-64-32v-16h96v16zm112-127.054688 24 12v19.054688h-16v-16h-16v16h-16v-19.054688zm-16-9.890624v-7.054688h16c-1.238281-.011719-2.460938.261719-3.574219.800781zm176 8.945312h-14.113281l-30.3125-15.199219c-1.113281-.539062-2.335938-.8125-3.574219-.800781h48zm8 16h16v16h-32v-16zm-32-3.054688v19.054688h-16v-16h-16v16h-16v-19.054688l24-12zm-40-21.890624-16 8v-23.054688c0-4.417969-3.582031-8-8-8h-32c-4.417969 0-8 3.582031-8 8v23.054688l-16-8v-11.742188l27.3125-27.3125h25.375l27.3125 27.3125zm-24 24.945312v16h-32v-16zm-24-16v-16h16v16zm-16 48h8v16h-96v-16zm-16 32v16h-96v-16zm56 56v24h-104v-16h24c4.417969 0 8-3.582031 8-8v-24h24c4.417969 0 8-3.582031 8-8v-24h16c4.417969 0 8-3.582031 8-8v-24h112v16h-24c-4.417969 0-8 3.582031-8 8v24h-24c-4.417969 0-8 3.582031-8 8v24h-24c-4.417969 0-8 3.582031-8 8zm232 24h-216v-16h216zm0-32h-184v-16h184zm0-32h-152v-16h152zm0-32h-120v-16h120zm-88-48v16h-16v-19.054688l24-12 24 12v19.054688h-16v-16zm88 16h-40v-16h40zm0-32h-46.113281l-17.886719-8.945312v-23.054688h-16v16c-1.238281-.011719-2.460938.261719-3.574219.800781l-12.425781 6.253907v-39.054688h-16v47.054688l-1.886719.945312h-14.113281v-24c0-4.417969-3.582031-8-8-8h-32v-32h-16v32h-12.6875l-29.65625-29.65625c-1.5-1.5-3.535156-2.34375-5.65625-2.34375h-32c-2.121094 0-4.15625.84375-5.65625 2.34375l-29.65625 29.65625h-4.6875v-16h-16v16h-8c-4.417969 0-8 3.582031-8 8v23.054688l-3.574219 1.785156c-2.714843 1.355468-4.425781 4.128906-4.425781 7.160156v24h-24c-4.417969 0-8 3.582031-8 8v24h-16c-4.417969 0-8 3.582031-8 8v24h-24c-4.417969 0-8 3.582031-8 8v24h-16v-84.6875l12-12 69.726562-15.496094c2.355469-.523437 4.347657-2.078125 5.425782-4.230468l39.152344-78.3125 30.496093-22.875c1.09375-.816407 1.957031-1.902344 2.511719-3.148438l16.6875-37.554688v34.304688h16v-69.105469l31.871094-38.246093 24.992187 31.199218 15.136719 45.457032v46.695312h16v-28.6875l10.34375 10.34375c.878906.875 1.949219 1.539062 3.128906 1.9375l18.527344 6.175781v26.230469h16v-18.214844l44 25.160156c.632812.359376 1.316406.628907 2.023438.796876l25.976562 6.507812v17.75h16v-6.921875l32 26.664063zm0 0"/><path d="m72 264h16v16h-16zm0 0"/><path d="m320 112h30.207031c-6.371093 7.019531-8 17.140625-4.144531 25.800781 3.851562 8.664063 12.457031 14.230469 21.9375 14.199219h72c13.253906 0 24-10.746094 24-24s-10.746094-24-24-24h-3.457031c-4.09375-9.351562-11.617188-16.78125-21.023438-20.75-2.261719-11.195312-12.097656-19.246094-23.519531-19.25h-3.457031c-6.34375-14.65625-20.832031-24.109375-36.804688-24.003906-15.96875.101562-30.335937 9.738281-36.488281 24.476562-12.09375 2.433594-20.375 13.640625-19.144531 25.914063 1.226562 12.277343 11.558593 21.621093 23.894531 21.613281zm103.121094 2c.910156 3.53125 4.097656 6 7.742187 6h9.136719c4.417969 0 8 3.582031 8 8s-3.582031 8-8 8h-72c-4.417969 0-8-3.582031-8-8s3.582031-8 8-8h1.136719c3.648437 0 6.832031-2.46875 7.742187-6 2.679688-10.585938 12.203125-18 23.121094-18s20.441406 7.414062 23.121094 18zm-103.121094-34h1.121094c3.636718 0 6.816406-2.457031 7.734375-5.976562 2.679687-10.597657 12.214843-18.019532 23.144531-18.019532s20.464844 7.421875 23.144531 18.019532c.917969 3.519531 4.097657 5.976562 7.734375 5.976562h9.121094c.738281.042969 1.464844.191406 2.160156.441406-10.355468 1.570313-19.675781 7.160156-25.9375 15.558594h-48.222656c-4.417969 0-8-3.582031-8-8s3.582031-8 8-8zm0 0"/><path d="m80 96h72c11.695312.007812 21.691406-8.417969 23.667969-19.941406 1.976562-11.527344-4.640625-22.800782-15.667969-26.691406v-1.367188c.03125-12.5625-7.308594-23.976562-18.757812-29.15625-11.445313-5.179688-24.867188-3.164062-34.28125 5.15625h-2.960938c-15.015625.015625-28.007812 10.457031-31.257812 25.121094-11.285157 3.574218-18.28125 14.847656-16.46875 26.550781 1.808593 11.699219 11.886718 20.332031 23.726562 20.328125zm0-32c4.417969 0 8-3.582031 8-8 0-8.835938 7.164062-16 16-16h6.222656c2.269532 0 4.429688-.964844 5.945313-2.648438 2.996093-3.394531 7.304687-5.34375 11.832031-5.351562 8.835938 0 16 7.164062 16 16v8c0 4.417969 3.582031 8 8 8s8 3.582031 8 8-3.582031 8-8 8h-72c-4.417969 0-8-3.582031-8-8s3.582031-8 8-8zm0 0"/></svg>